<?xml version="1.0" standalone="no"?>
<!DOCTYPE svg PUBLIC "-//W3C//DTD SVG 20010904//EN"
 "http://www.w3.org/TR/2001/REC-SVG-20010904/DTD/svg10.dtd">
<svg version="1.0" xmlns="http://www.w3.org/2000/svg"
 width="96.000000pt" height="96.000000pt" viewBox="0 0 96.000000 96.000000"
 preserveAspectRatio="xMidYMid meet">
<metadata>
Created by potrace 1.11, written by Peter Selinger 2001-2013
</metadata>
<g transform="translate(0.000000,96.000000) scale(0.100000,-0.100000)"
fill="#000000" stroke="none">
<path d="M0 480 l0 -480 480 0 480 0 0 480 0 480 -480 0 -480 0 0 -480z m575
449 c33 -6 70 -19 83 -30 14 -10 31 -19 38 -19 8 0 14 -5 14 -11 0 -6 11 -25
24 -42 14 -18 33 -52 44 -77 l19 -46 -34 -39 c-19 -22 -32 -34 -28 -27 9 17 0
15 -16 -5 -10 -11 -10 -14 -1 -9 17 10 15 -9 -3 -24 -11 -9 -12 -17 -5 -30 6
-10 10 -41 10 -68 0 -39 -6 -58 -30 -90 -34 -48 -82 -76 -112 -66 -14 4 -18 2
-14 -5 5 -7 49 -11 122 -11 64 0 114 -4 114 -9 0 -15 -52 -48 -87 -56 -36 -7
-103 10 -103 27 0 11 -46 7 -98 -10 -18 -6 -30 -7 -27 -2 6 9 -63 22 -124 24
-19 1 -36 7 -39 14 -4 12 14 17 51 14 9 -1 17 3 17 9 0 6 11 8 28 5 15 -2 50
-7 77 -10 l50 -5 -55 20 c-30 11 -63 22 -72 25 -10 4 -18 11 -18 16 0 5 -4 7
-10 3 -5 -3 -17 6 -26 20 -9 14 -22 25 -29 25 -8 0 -22 11 -33 25 -11 14 -25
25 -31 25 -6 0 -16 9 -23 20 -7 11 -19 20 -26 20 -8 0 -12 9 -10 23 2 16 -5
26 -27 38 -35 20 -35 37 1 90 14 20 27 53 31 73 3 20 10 36 15 36 5 0 8 7 6
16 -2 10 10 23 32 35 19 10 41 23 48 29 7 6 16 9 21 6 21 -13 74 8 90 35 18
33 47 36 146 18z"/>
<path d="M525 910 c-19 -8 -19 -9 3 -9 14 -1 22 -7 22 -18 0 -14 2 -15 9 -5 7
11 19 8 62 -14 57 -30 79 -36 79 -25 0 22 -93 73 -117 64 -11 -4 -14 -2 -9 5
8 14 -19 15 -49 2z"/>
<path d="M540 700 c0 -5 5 -10 10 -10 6 0 10 5 10 10 0 6 -4 10 -10 10 -5 0
-10 -4 -10 -10z"/>
<path d="M275 691 c3 -5 1 -12 -5 -16 -14 -8 -13 -68 2 -102 6 -15 23 -40 37
-55 13 -15 22 -31 18 -35 -10 -9 53 -45 68 -39 7 2 31 -7 55 -20 52 -30 52
-30 44 1 -5 21 0 32 32 60 l39 34 -85 2 -85 1 50 13 c28 7 44 13 36 14 -8 0
-33 9 -55 19 -86 39 -101 45 -108 44 -5 -1 -8 2 -8 7 0 5 -9 13 -21 16 -11 4
-18 9 -16 12 3 2 15 -1 27 -7 12 -6 24 -9 27 -7 8 9 -30 67 -45 67 -7 0 -11
-4 -7 -9z"/>
<path d="M347 682 c-7 -11 4 -62 13 -62 5 0 15 -3 24 -6 12 -5 14 0 10 22 -8
42 -34 68 -47 46z"/>
<path d="M578 523 c7 -3 16 -2 19 1 4 3 -2 6 -13 5 -11 0 -14 -3 -6 -6z"/>
<path d="M345 320 c-3 -6 1 -7 9 -4 18 7 21 14 7 14 -6 0 -13 -4 -16 -10z"/>
</g>
</svg>
